# xmcd
#
# Track frame offsets: 
#        150
#        19639
#        37824
#        53139
#        72941
#        119106
#        148206
#        170014
#        189514
#        210204
#        230449
#        248256
#
# Disc length: 3567 seconds
#
# Revision: 0
# Processed by: cddbd v1.5.2PL0 Copyright (c) Steve Scherf et al.
# Submitted via: ExactAudioCopy v1.3
#
DISCID=a00ded0c
DTITLE=Black Cat Bone - Taylormade
DYEAR=1997
DGENRE=Blues Rock
TTITLE0=Wake Up Call
TTITLE1=Ain't That I Don't Love You
TTITLE2=The Stumble
TTITLE3=Cold Champagne
TTITLE4=Blind Willie McTell
TTITLE5=Mick's Song
TTITLE6=Get Out Of My Life Woman
TTITLE7=Slow Blues
TTITLE8=Heart Fixin' Man
TTITLE9=Mercy, Mercy
TTITLE10=Italian Summer
TTITLE11=Blue Shadows
EXTD=
EXTT0=
EXTT1=
EXTT2=
EXTT3=
EXTT4=
EXTT5=
EXTT6=
EXTT7=
EXTT8=
EXTT9=
EXTT10=
EXTT11=
PLAYORDER=
